<?xml version="1.0" encoding="UTF-8" standalone="no"?>
<svg
   xmlns:dc="http://purl.org/dc/elements/1.1/"
   xmlns:cc="http://creativecommons.org/ns#"
   xmlns:rdf="http://www.w3.org/1999/02/22-rdf-syntax-ns#"
   xmlns:svg="http://www.w3.org/2000/svg"
   xmlns="http://www.w3.org/2000/svg"
   xmlns:sodipodi="http://sodipodi.sourceforge.net/DTD/sodipodi-0.dtd"
   xmlns:inkscape="http://www.inkscape.org/namespaces/inkscape"
   inkscape:version="1.0.2 (e86c870879, 2021-01-15, custom)"
   sodipodi:docname="body.svg"
   id="svg17675"
   version="1.1"
   viewBox="0 0 67.733332 67.733333"
   height="256"
   width="256">
  <metadata
     id="metadata57">
    <rdf:RDF>
      <cc:Work
         rdf:about="">
        <dc:format>image/svg+xml</dc:format>
        <dc:type
           rdf:resource="http://purl.org/dc/dcmitype/StillImage" />
      </cc:Work>
    </rdf:RDF>
  </metadata>
  <sodipodi:namedview
     id="namedview17677"
     pagecolor="#ffffff"
     bordercolor="#000000"
     borderopacity="0.25"
     inkscape:showpageshadow="2"
     inkscape:pageopacity="0.0"
     inkscape:pagecheckerboard="0"
     inkscape:deskcolor="#d1d1d1"
     inkscape:document-units="px"
     showgrid="false"
     inkscape:zoom="2.174512"
     inkscape:cx="30.9374"
     inkscape:cy="100.0932"
     inkscape:window-width="1920"
     inkscape:window-height="1017"
     inkscape:window-x="-8"
     inkscape:window-y="-8"
     inkscape:window-maximized="1"
     inkscape:current-layer="layer1"
     inkscape:document-rotation="0" />
  <defs
     id="defs17672" />
  <g
     inkscape:label="Слой 1"
     inkscape:groupmode="layer"
     id="layer1">
    <g
       id="g17670"
       transform="matrix(2.3021096,0,0,2.3021096,-156.376,-392.70458)">
      <path
         style="fill:#4d4d4d;fill-opacity:1;stroke:#000000;stroke-width:0.465;stroke-dasharray:none"
         d="m 80.08526,172.93907 0.22665,-1.26922 c 0.32251,-1.05718 4.127752,-1.23915 4.469472,0.20941 l 0.33817,1.23719 3.06048,1.0867 c 1.16599,1.46897 0.83614,3.45969 0.4774,5.10725 l -1.11975,2.46996 c -0.22874,0.79774 -0.2524,1.6867 -0.12645,2.43353 0.16146,0.92031 0.25677,1.79915 0.33634,2.74127 0.15924,2.0246 -0.33412,4.14497 -0.69784,6.12588 -0.30728,1.67358 -0.44157,3.24288 -0.83241,4.61908 -0.56792,2.06399 -2.26142,2.78008 -3.626012,1.34172 -2.05711,1.62433 -3.13638,0.35477 -3.7258,-1.44151 -0.5715,-1.67063 -0.59154,-3.18421 -0.8651,-4.72309 -0.3582,-2.01498 -0.86749,-4.0261 -0.75932,-6.01347 0.0522,-0.9595 0.33677,-1.93312 0.50562,-2.91881 0.1188,-0.69349 0.043,-1.35836 -0.22373,-2.18234 l -1.013813,-2.94185 c -0.28608,-1.65314 -0.405887,-3.85815 0.848273,-4.90593 z"
         id="path21313"
         sodipodi:nodetypes="cccccccccscccssscccc" />
      <path
         id="path29877"
         style="fill:#333333;fill-opacity:1;stroke:none;stroke-width:0.191807"
         d="m 80.553328,172.10963 1.04438,1.65055 -0.1385,0.63717 -0.46819,-0.0367 -0.49609,-0.5147 -0.23306,-0.8015 c -1.05767,0.34879 -1.80317,0.69498 -2.88768,0.95395 -0.43937,0.44337 -0.71168,0.97251 -0.79168,1.55752 -0.11031,0.95686 -0.28388,2.32118 0.0181,3.25717 l 0.67438,1.7818 2.42104,-1.02784 h 2.09393 l 0.83974,-0.51418 0.0951,-0.75448 0.11214,0.8909 0.836643,0.5147 h 2.08514 l 2.23087,0.91932 0.58136,-1.31878 c 0.40279,-0.93031 0.49206,-2.63323 0.20774,-3.59978 -0.0797,-0.58501 -0.26982,-1.12655 -0.70745,-1.56993 -1.02691,-0.23851 -2.0245,-0.55172 -3.0148,-0.90692 l -0.0935,0.75448 -0.49403,0.51469 -0.46612,0.0367 -0.31575,-0.63717 0.84181,-1.74873 c -1.331993,0.0657 -2.669063,0.0599 -3.975463,-0.0382 z m 2.72954,1.90325 c -0.43969,0.7609 -0.66181,0.72576 -1.08003,0.0413 -0.16765,-0.96318 1.232853,-0.90736 1.08003,-0.0413 z m -4.22764,-0.062 c 0.1127,0.053 0.50137,0.24614 0.60513,0.36277 0.29228,0.3677 -0.36012,1.00399 -0.65113,1.44126 -0.33178,0.24549 -1.24205,1.2404 -1.70842,1.2454 -0.53629,-0.44276 -0.36917,-1.58808 -0.22841,-2.23242 0.42429,-0.56596 1.1604,-0.74031 1.98283,-0.81701 z m 7.341673,0.13695 c 0.81917,0.0767 1.55246,0.25052 1.97507,0.81648 0.1402,0.64433 0.30678,1.79018 -0.22738,2.23294 -0.46453,-0.005 -1.43221,-0.91723 -1.76268,-1.16272 -0.28985,-0.43727 -0.87868,-1.15625 -0.58756,-1.52393 0.10336,-0.11662 0.49029,-0.30973 0.60255,-0.36277 z m -5.344383,0.92966 c 0.28049,0.003 0.57271,0.0609 0.84749,0.1881 0.35562,0.90826 0.57417,2.12264 0.31678,3.22202 0,0.049 -0.47801,0.56948 -0.47801,0.56948 -0.8136,0.12101 -2.57239,0.23107 -3.27473,-0.41238 -0.2405,-0.44449 -0.26714,-0.42026 -0.16485,-0.92242 0.29628,-1.09211 1.01622,-1.88349 1.97559,-2.50579 0.22844,-0.0909 0.49724,-0.14218 0.77773,-0.13901 z m 3.292303,0.0966 c 0.28715,-0.006 0.56581,0.0617 0.83768,0.17347 1.01108,0.65454 1.61242,1.48283 1.96784,2.51112 0.10188,0.50217 0.0752,0.47793 -0.16433,0.92243 -0.69956,0.64344 -2.45146,0.53339 -3.26182,0.41237 0,0 -0.475943,-0.51993 -0.475943,-0.56895 -0.25637,-1.09937 -0.0389,-2.31377 0.315233,-3.22203 0.26777,-0.15625 0.52798,-0.22327 0.78134,-0.22841 z"
         sodipodi:nodetypes="ccccccccccccccccccccccccccccccccccccccsccccsscccccssccccccsc" />
      <path
         style="fill:#1a1a1a;fill-opacity:1;stroke:none;stroke-width:0.230043"
         d="m 76.816628,175.97529 0.16695,-0.68143 c 0.0722,-0.72869 0.94068,-0.9748 1.46846,-1.26492 l 1.11535,0.31125 1.14743,0.19888 1.07571,0.25078 c -0.51682,-0.40798 -1.16377,-0.40955 -1.82871,-0.53614 -0.22993,-0.0575 -0.4328,-0.4975 -0.23356,-0.61797 l 1.43427,-0.15564 0.50774,0.33002 c -0.32004,-0.49711 -0.57465,-0.93916 -0.87826,-1.54059 1.37905,0.34263 2.41051,0.45118 3.633523,-0.0779 l -0.2988,0.77828 c -0.15162,0.23104 -0.32086,0.74056 -0.49719,0.96551 l 0.76013,-0.43801 0.80081,0.0346 c 0.3363,-0.008 0.42077,0.55374 -0.0207,0.66946 0,0 -0.46798,0.0966 -0.6114,0.10528 -0.58386,0.11198 -1.03407,0.23225 -1.420483,0.5087 0,0 0.381593,-0.0987 0.465263,-0.14193 0.0838,-0.0432 0.56265,-0.14347 0.62243,-0.14347 0.0597,0 0.64541,-0.0778 0.64541,-0.0778 0.43487,-0.0854 0.87451,0.21116 1.31477,0.16181 1.50153,-0.007 2.19395,0.14643 2.50486,1.48176 l 0.22625,1.22051 0.0167,0.0543 0.0232,-0.665 c -0.0296,-0.80685 -0.0358,-0.38887 -0.18208,-1.22737 -0.29866,-0.76637 -0.22,-0.99483 -0.72563,-1.34506 -0.13147,-0.0606 -1.30796,-0.34356 -1.30796,-0.34356 l -0.87831,-0.3079 -0.77592,-0.26545 -0.21573,-0.87463 -0.15081,-0.57415 c -0.43595,-1.12293 -2.488663,-0.81832 -3.449543,-0.6573 -0.56969,0.10814 -0.70073,0.33728 -0.81727,0.80855 l -0.18071,1.09467 c 0,0 -0.533345,0.14751 -0.593095,0.19074 -0.0597,0.0432 -0.865575,0.3392 -0.949245,0.3738 -0.0836,0.0346 -1.37187,0.43321 -1.37187,0.43321 -0.47986,0.53559 -0.61995,0.82522 -0.74574,1.3073 -0.07,0.0468 -0.23822,1.9581 -0.18516,1.964 z"
         id="path29891"
         sodipodi:nodetypes="ccccccccccccccccccccsccccccccccccccccsscccc" />
      <path
         id="path33873"
         style="fill:#ff7f2a;fill-opacity:1;stroke:#552200;stroke-width:0.402;stroke-dasharray:none"
         d="m 86.095273,173.49037 c -0.950396,2.8929 -2.537239,2.66741 -3.355251,5.59254 -1.071882,-2.85217 -2.383191,-3.02284 -3.552627,-5.83828 -3.638024,0.48142 -3.131899,3.51576 -2.587318,6.08569 l 1.0077,2.91932 c -0.02468,0.51347 0.076,1.16059 -0.07592,1.58705 l -0.842195,3.98857 0.550666,6.36733 0.323922,1.99428 c -0.453284,1.86455 -0.113574,1.60304 1.392356,2.62373 0.635189,-0.0676 1.28523,-0.11025 1.937248,-0.10735 0.62457,0.003 1.242614,0.16093 1.867836,0.15165 0.55062,-0.008 1.056934,-0.14246 1.555334,-0.16593 0.699908,-0.0329 1.338391,0.10976 1.980955,0.0984 1.681923,-1.07915 1.715014,-0.7511 1.392357,-2.62425 l 0.323922,-1.99375 0.550157,-6.36734 -0.84169,-3.98856 c -0.151907,-0.42646 -0.05122,-1.0736 -0.07591,-1.58706 l 1.007192,-2.91933 c 0.547828,-2.06552 0.680495,-3.87309 -0.476269,-5.12555 l -1.903981,-0.62497 z"
         sodipodi:nodetypes="ccccccccccssscccccccccc" />
      <path
         style="fill:#803300;fill-opacity:1;stroke:none;stroke-width:0.33334"
         d="m 80.620592,186.02859 0.63665,0.49633 0.84478,0.28362 c 0,0 0.30607,0.11524 0.40402,0.11524 0.0979,0 1.052919,-0.0266 1.052919,-0.0266 l 0.71009,-0.2659 1.08965,-0.62926 -0.4775,0.4786 -0.50196,0.76223 -0.55093,1.01924 -0.25712,0.82428 -0.0734,4.79492 -0.195879,0.55839 -0.0734,1.9676 0.0734,1.09902 c 0.04996,0.43213 0.112949,0.86248 0.174309,1.29309 l -1.310368,0.0254 c 0.348337,-1.39233 0.290483,-2.68125 0.269907,-4.16206 l 0.0948,-0.72036 -0.682761,-5.09391 -0.640622,-1.81855 -0.158047,-0.51482 z"
         id="path29879"
         sodipodi:nodetypes="cccsccccccccccccccccccc" />
      <path
         style="fill:#d45500;fill-opacity:1;stroke:none;stroke-width:0.0586157"
         d="m 81.899245,187.5277 c -0.104514,-0.0478 -0.299202,-0.17683 -0.432633,-0.28693 -0.32532,-0.26844 -1.136378,-1.31375 -1.692456,-1.95308 -0.234903,-0.27004 -0.529674,-0.66644 -0.529674,-0.70246 0,-0.096 0.05448,-0.26064 0.496713,-0.002 0.209718,0.1227 0.77937,0.78866 0.959292,0.92552 0.580766,0.44173 0.716497,0.49986 1.958841,0.49962 0.658931,-1.3e-4 1.175102,-0.0256 1.330135,-0.0658 0.140035,-0.0362 0.485091,-0.22996 0.771414,-0.43306 0.529261,-0.37551 1.191614,-0.99153 1.454575,-1.05792 0.143374,-0.0361 -0.117478,0.24355 -0.208054,0.39392 -0.272564,0.45143 -1.962614,2.38825 -2.323433,2.59296 -0.22918,0.13004 -0.321557,0.14604 -0.924595,0.16018 -0.295609,0.0122 -0.59886,-0.0215 -0.860125,-0.071 z"
         id="path29881"
         sodipodi:nodetypes="cssssssssscsccc" />
      <path
         style="fill:#d45500;fill-opacity:1;stroke:none;stroke-width:0.0070794;stroke-opacity:1"
         d="m 82.753866,185.04016 c -0.270137,0.0196 0.187999,-4.33738 -0.160522,-4.37208 -0.08618,-0.009 -0.185218,-0.11524 -0.321446,-0.14147 -0.116228,-0.0224 -0.229947,-0.0295 -0.620263,-0.0385 -0.156266,-0.004 -0.375431,-0.005 -0.511581,-0.003 -0.320835,0.004 -0.453594,0.0118 -0.757895,0.0415 -0.217421,0.0212 -0.36318,0.0323 -0.422256,0.032 -0.04516,-1.8e-4 -0.04773,-7e-4 -0.03519,-0.008 0.0579,-0.0335 0.431939,-0.12505 0.7606,-0.18627 0.639743,-0.11917 1.162935,-0.15748 2.14647,-0.15732 0.608979,9e-5 0.976544,0.0135 1.353382,0.0491 0.212422,0.0202 0.520604,0.0615 0.703759,0.0944 0.267389,0.0481 0.617286,0.13207 0.688397,0.16512 l 0.02349,0.0105 -0.05101,-0.003 c -0.02806,-9.1e-4 -0.0987,-0.009 -0.156993,-0.0161 -0.299974,-0.0377 -0.625001,-0.0559 -1.080428,-0.0607 -0.470553,-0.005 -0.743994,0.0131 -1.036688,0.0665 -0.206613,0.0381 -0.242492,0.0903 -0.336995,0.15929 -0.373937,0.11327 0.2084,4.41972 -0.184846,4.36713 z"
         id="path35152"
         sodipodi:nodetypes="cssscsscssssscccsscc" />
      <path
         id="path35044"
         style="fill:#d45500;fill-opacity:1;stroke:none;stroke-width:0.19031"
         d="m 79.076998,173.43193 c -1.362317,0.29512 -2.152525,0.63317 -2.558198,1.93461 -0.379764,1.24569 -0.146079,2.82728 0.06922,3.90934 l 0.509238,1.38493 0.542148,1.51405 c -0.02571,0.55246 0.03841,1.09189 -0.08417,1.65841 l -0.687323,3.37695 c 0.713553,-1.05103 0.753901,-2.08383 2.81699,-2.62497 -1.37927,-0.6461 -1.223254,-0.55142 -0.587685,-1.69368 -1.160445,-0.61039 -1.061709,-2.00923 -0.771604,-2.73904 l 1.415501,-0.58571 h 2.061369 l 0.932499,-0.33641 -0.116975,-0.36176 -0.461324,-0.55382 c -0.382527,1.31728 -2.822426,0.88608 -3.628352,0.27016 -0.236759,-0.44449 -0.262983,-0.42027 -0.162284,-0.92243 0.625811,-1.91507 1.404584,-1.86583 1.6864,-2.38363 0.02807,-0.0516 -0.286469,-0.45289 -0.555714,-0.9327 z m 7.151661,0.18188 c -0.184473,0.59668 -0.631093,1.49835 -0.88095,1.8227 0.995357,0.65454 1.381925,1.33366 1.731818,2.36195 0.100296,0.50217 0.07403,0.47792 -0.161775,0.92242 -1.585889,0.80222 -2.817148,0.90898 -3.613578,-0.56642 -0.164781,0.25668 -0.374332,0.54966 -0.500511,0.89457 l -0.05599,0.17336 0.909098,0.48163 h 2.05272 c 0.02303,1.04018 2.501298,1.47382 0.246676,3.34029 0.917414,0.66688 0.507554,1.04496 -0.220363,1.57989 l 2.37627,1.98004 -0.491898,-3.01228 0.0059,-1.4008 0.492565,-1.40704 0.503253,-1.44448 c 0.05376,-0.84886 0.206744,-1.54606 0.248322,-2.15184 0.145491,-2.11979 -0.143472,-2.93416 -2.641557,-3.57399 z m -7.305455,0.36021 c 0.110948,0.053 0.332691,0.44544 0.434838,0.56207 0.287735,0.3677 -0.0065,0.78181 -0.293026,1.21908 -0.32662,0.24549 -1.661228,1.48012 -2.120346,1.48512 -0.527949,-0.44276 -0.141261,-1.53547 -0.0027,-2.17981 0.417693,-0.56596 1.171584,-1.00976 1.981224,-1.08646 z m 7.472154,0.0322 c 0.806431,0.0767 1.559525,0.55327 1.975563,1.11923 0.13802,0.64433 0.527446,1.776 0.0016,2.21876 -0.457307,-0.005 -1.724136,-1.12446 -2.049468,-1.36995 -0.709392,-1.18025 -0.703514,-0.78691 0.07231,-1.96804 z"
         sodipodi:nodetypes="cccccccccccccccccsccccccccccccccccccsccccccccccccsc" />
      <path
         style="fill:#ff7f2a;fill-opacity:1;stroke:#803300;stroke-width:0.182582;stroke-dasharray:none"
         d="m 84.73501,178.55664 0.06097,2.42432 c 0.67644,0.25616 1.375872,0.24795 2.096734,-0.007 l 0.03888,-2.28151 c 0.04143,-0.50346 0.02616,-0.48482 -0.450123,-0.49306 l -1.438724,-0.0249 c -0.375731,-0.0416 -0.316354,0.0396 -0.30774,0.38215 z"
         id="path34984"
         sodipodi:nodetypes="ccccccc" />
      <path
         style="fill:#d45500;fill-opacity:1;stroke:none;stroke-width:0.0977829;stroke-dasharray:none"
         d="m 77.778229,192.50917 c -0.01512,1.05572 0.09855,2.09254 0.29562,3.11712 0.657642,0.53246 1.580121,0.56635 2.434939,0.72761 -0.703092,0.0786 -1.378174,0.46488 -2.118713,0.13229 -0.146663,1.63599 1.135036,1.37856 2.434944,1.68672 l 1.517882,-1.45521 c -0.510833,-0.90277 -1.35767,-1.17801 -2.150334,-1.55443 0.789907,-0.32987 1.339151,-0.94919 1.707617,-1.78594 -0.328595,-3.20844 -0.18904,-4.28994 -1.026539,-5.79809 -0.821705,-1.62449 -2.628905,-2.6501 -3.274131,-0.51883 l -0.316226,0.76068 -0.537585,-0.29766 0.379471,-0.95911 c 0.467531,-1.23858 1.241554,-1.94677 2.49435,-2.00378 l 1.458473,1.90454 c 1.7775,2.15857 1.389209,4.71621 1.513968,7.22643 l -0.07557,1.02526 0.190169,0.71106 c 0.09925,0.83615 0.08368,1.77675 -0.09849,2.54669 -0.07748,0.32748 -0.320551,0.48864 -0.377011,0.81848 -1.159334,-0.2786 -2.131267,-0.15243 -3.311305,-0.0413 -1.493281,-1.09823 -1.626611,-0.92681 -1.27281,-2.57142 -0.176018,-1.20716 -0.449881,-2.41432 -0.408556,-3.62148 z"
         id="path35118"
         sodipodi:nodetypes="ccccccccccccccccccsccccc" />
      <path
         style="fill:#d45500;fill-opacity:1;stroke:none;stroke-width:0.0950326;stroke-dasharray:none"
         d="m 87.620558,192.71553 c -0.01766,0.98732 -0.171975,1.95456 -0.401298,2.91076 -0.62117,0.53246 -1.492487,0.56635 -2.299899,0.72761 0.6641,0.0786 1.301741,0.46488 2.001211,0.13229 0.138529,1.63599 -1.072087,1.37856 -2.299903,1.68672 l -1.4337,-1.45521 c 0.482502,-0.90277 1.282373,-1.17801 2.031076,-1.55443 -0.746099,-0.32987 -1.264881,-0.94919 -1.612913,-1.78594 0.310373,-3.20844 0.178557,-4.28994 0.969607,-5.79809 0.776134,-1.62449 2.483107,-2.6501 3.092549,-0.51883 l 0.298688,0.76068 0.507771,-0.29766 -0.358425,-0.95911 c -0.441603,-1.23858 -1.049379,-1.96874 -2.232695,-2.02575 l -1.500905,1.92651 c -1.67892,2.15857 -1.226258,4.60045 -1.344098,7.11067 l 0.01256,1.15755 -0.206706,0.69453 c -0.100333,0.89486 -0.08934,1.81347 0.133975,2.63 0.0741,0.27094 0.414383,0.43498 0.458905,0.71036 1.095038,-0.2786 1.869313,-0.12762 2.983906,-0.0164 1.410464,-1.09823 1.5364,-0.92681 1.202221,-2.57142 0.176672,-1.15479 0.387564,-2.30959 0.420449,-3.46438 z"
         id="path35120"
         sodipodi:nodetypes="ccccccccccccccccccsccccc" />
      <path
         style="fill:#333333;fill-opacity:1;stroke:#552200;stroke-width:0.2;stroke-dasharray:none"
         d="m 77.286162,183.88916 -0.147747,0.62382 c -0.13103,0.34464 -0.01345,0.35838 0.257932,0.46769 4.20345,1.67529 6.926493,1.76769 10.537327,-0.26408 0.237163,-0.11241 0.238045,-0.13918 0.171409,-0.39092 l -0.0701,-0.26483 -0.09469,-0.35771 c -0.04703,-0.25268 -0.06505,-0.24769 -0.254746,-0.14755 -3.225833,1.90156 -6.686113,1.56195 -9.401958,0.46215 l -0.382081,-0.17741 c -0.394725,-0.16159 -0.50768,-0.40576 -0.615347,0.0488 z"
         id="path35429"
         sodipodi:nodetypes="cccccccccccc" />
      <path
         style="fill:#1a1a1a;fill-opacity:1;stroke:none;stroke-width:0.0472038;stroke-dasharray:none"
         d="m 77.253388,184.47427 c 5.971129,1.92157 7.0193,1.3095 10.703042,-0.29204 l -0.07242,-0.30803 c -3.277984,1.89418 -6.077468,1.94837 -10.560754,0.30554 -0.04133,0.11009 -0.06429,0.1993 -0.06987,0.29453 z"
         id="path35692"
         sodipodi:nodetypes="cccccc" />
      <path
         style="fill:#808080;fill-opacity:1;stroke:#000000;stroke-width:0.1;stroke-dasharray:none"
         d="m 82.581813,179.01542 0.3638,0.008 0.112228,7.19969 h -0.397565 z"
         id="path35539" />
      <path
         style="fill:#808080;fill-opacity:1;stroke:#000000;stroke-width:0.0208333;stroke-dasharray:none"
         d="m 82.60836,179.04576 0.425751,2.9e-4 0.01858,0.26693 h -0.4654 z"
         id="path35657" />
      <path
         style="fill:#808080;fill-opacity:1;stroke:#000000;stroke-width:0.0208333;stroke-dasharray:none"
         d="m 82.60836,179.50179 0.425751,2.9e-4 0.01858,0.26693 h -0.4654 z"
         id="path35659" />
      <path
         style="fill:#808080;fill-opacity:1;stroke:#000000;stroke-width:0.0208333;stroke-dasharray:none"
         d="m 82.60836,179.96659 0.425751,2.9e-4 0.01858,0.26693 h -0.4654 z"
         id="path35661" />
      <path
         style="fill:#808080;fill-opacity:1;stroke:#000000;stroke-width:0.0208333;stroke-dasharray:none"
         d="m 82.60836,180.45477 0.425751,2.9e-4 0.01858,0.26693 h -0.4654 z"
         id="path35663" />
      <path
         style="fill:#808080;fill-opacity:1;stroke:#000000;stroke-width:0.0208333;stroke-dasharray:none"
         d="m 82.60836,180.93433 0.425751,2.9e-4 0.01858,0.26693 h -0.4654 z"
         id="path35665" />
      <path
         style="fill:#808080;fill-opacity:1;stroke:#000000;stroke-width:0.0208333;stroke-dasharray:none"
         d="m 82.60836,181.47176 0.425751,2.9e-4 0.01858,0.26693 h -0.4654 z"
         id="path35667" />
      <path
         style="fill:#808080;fill-opacity:1;stroke:#000000;stroke-width:0.0208333;stroke-dasharray:none"
         d="m 82.60836,181.98439 0.425751,2.9e-4 0.01858,0.26693 h -0.4654 z"
         id="path35669" />
      <path
         style="fill:#808080;fill-opacity:1;stroke:#000000;stroke-width:0.0208333;stroke-dasharray:none"
         d="m 82.60836,182.45568 0.425751,2.9e-4 0.01858,0.26693 h -0.4654 z"
         id="path35671" />
      <path
         style="fill:#808080;fill-opacity:1;stroke:#000000;stroke-width:0.0208333;stroke-dasharray:none"
         d="m 82.60836,183.00965 0.425751,2.9e-4 0.01858,0.26693 h -0.4654 z"
         id="path35673" />
      <path
         style="fill:#808080;fill-opacity:1;stroke:#000000;stroke-width:0.0208333;stroke-dasharray:none"
         d="m 82.60836,183.60496 0.425751,2.9e-4 0.01858,0.26693 h -0.4654 z"
         id="path35675" />
      <path
         style="fill:#808080;fill-opacity:1;stroke:#000000;stroke-width:0.0208333;stroke-dasharray:none"
         d="m 82.60836,184.12586 0.425751,2.9e-4 0.01858,0.26693 h -0.4654 z"
         id="path35677" />
      <path
         style="fill:#808080;fill-opacity:1;stroke:#000000;stroke-width:0.0208333;stroke-dasharray:none"
         d="m 82.60836,184.6881 0.425751,2.9e-4 0.01858,0.26693 h -0.4654 z"
         id="path35679" />
      <path
         style="fill:#808080;fill-opacity:1;stroke:#000000;stroke-width:0.0208333;stroke-dasharray:none"
         d="m 82.60836,185.20073 0.425751,2.9e-4 0.01858,0.26693 h -0.4654 z"
         id="path35681" />
      <path
         style="fill:#808080;fill-opacity:1;stroke:#000000;stroke-width:0.0208333;stroke-dasharray:none"
         d="m 82.60836,185.74643 0.425751,2.9e-4 0.01858,0.26693 h -0.4654 z"
         id="path35683" />
      <g
         id="g35690"
         transform="translate(-1.0500651,-3.7207029)">
        <path
           style="fill:#808080;fill-opacity:1;stroke:#000000;stroke-width:0.0323864;stroke-dasharray:none"
           d="m 83.63751,182.83398 0.416011,7.1e-4 0.01815,0.6602 h -0.45475 z"
           id="path35649" />
        <path
           style="fill:#808080;fill-opacity:1;stroke:#000000;stroke-width:0.0221956;stroke-dasharray:none"
           d="m 83.594538,182.66359 0.485844,2.9e-4 0.0212,0.26551 h -0.531089 z"
           id="path35651" />
        <path
           style="fill:#1a1a1a;fill-opacity:1;stroke:#000000;stroke-width:0.0167531;stroke-dasharray:none"
           d="m 83.739408,183.0246 0.215197,3.6e-4 0.0093,0.34151 h -0.235203 z"
           id="path35685" />
      </g>
      <g
         id="g38608"
         style="stroke:#552200">
        <path
           style="fill:#ff7f2a;fill-opacity:1;stroke:#552200;stroke-width:0.3;stroke-dasharray:none"
           d="m 76.361086,189.59097 v -2.29184 c 0.605377,-0.17262 1.220087,-0.17724 1.847501,0.0468 1.704401,0.87634 1.518578,0.77796 1.543485,2.59585 l 0.02339,2.31522 c -0.247882,0.54394 -0.449023,0.58593 -0.954824,0.59715 -1.162216,0.0238 -1.671854,0.0141 -1.921548,-0.25817 -0.331267,-0.3612 -0.205019,-1.18458 -0.538004,-3.00497 z"
           id="path31369"
           sodipodi:nodetypes="ccccccscc" />
        <path
           style="fill:#ff7f2a;fill-opacity:1;stroke:#552200;stroke-width:0;stroke-dasharray:none"
           d="m 76.419551,189.62372 v -2.17879 c 0.600979,-0.1641 1.211223,-0.16849 1.834079,0.0445 1.692019,0.83312 1.507546,0.73959 1.532272,2.46781 l 0.02322,2.20102 c -0.246081,0.5171 -0.445761,0.55702 -0.947887,0.56769 -1.153773,0.0226 -1.659708,0.0134 -1.907588,-0.24543 -0.328861,-0.34339 -0.20353,-1.12616 -0.534096,-2.85675 z"
           id="path38601"
           sodipodi:nodetypes="ccccccscc" />
        <path
           style="fill:#d45500;fill-opacity:1;stroke:#552200;stroke-width:0.0982124;stroke-dasharray:none"
           d="m 76.431507,187.39554 c 0.731565,-0.13243 1.224894,-0.10107 1.736328,0.0637 -0.536316,2.08559 0.3821,3.48962 0.578776,5.23179 -2.600813,0.21288 -1.85891,-0.56727 -2.348177,-2.92693 z"
           id="path35771"
           sodipodi:nodetypes="ccccc" />
        <path
           style="fill:#803300;fill-opacity:1;stroke:#552200;stroke-width:0.1001;stroke-dasharray:none"
           d="m 76.497653,190.43328 1.704747,0.016 c 0.10511,-0.66647 -0.313418,-1.93006 0.647802,-1.7359 l 0.957338,1.58606 -0.01121,0.16589 c -0.392557,-0.27769 -0.751232,-1.17816 -1.218895,-0.46614 l -0.170476,0.61077 0.511425,2.09752 -0.183134,-9.7e-4 -0.566955,-2.03185 -1.619511,-0.008 z"
           id="path35773"
           sodipodi:nodetypes="cccccccccccc" />
        <path
           style="fill:#803300;fill-opacity:1;stroke:#552200;stroke-width:0.1;stroke-dasharray:none"
           d="m 76.886259,190.16099 c 0,0.0413 0.09095,0.83509 0.09095,0.83509 l 0.256315,-0.0413 -0.09922,-0.80202 z"
           id="path35829" />
      </g>
      <path
         style="fill:#d45500;fill-opacity:1;stroke:#803300;stroke-width:0;stroke-dasharray:none"
         d="m 84.861013,179.39753 0.01178,0.34825 c 0.624289,0.1348 1.298784,0.13323 1.954372,-0.002 l 0.001,-0.3609 z"
         id="path36111"
         sodipodi:nodetypes="ccccc" />
      <path
         style="fill:#ff7f2a;fill-opacity:1;stroke:#803300;stroke-width:0.15063;stroke-dasharray:none"
         d="m 84.724257,178.57342 0.04644,0.74122 c 0.687509,0.1045 1.398385,0.10115 2.131042,-0.002 l 0.02738,-0.64483 c 0.03102,-0.4345 -0.149037,-0.4716 -0.330433,-0.48642 l -1.572716,-0.0115 c -0.392428,-0.0399 -0.323946,0.0488 -0.301713,0.40355 z"
         id="path35839"
         sodipodi:nodetypes="ccccccc" />
      <path
         style="fill:#d45500;fill-opacity:1;stroke:#803300;stroke-width:0;stroke-dasharray:none"
         d="m 84.849884,179.25517 c 0.624289,0.1348 1.315443,0.13323 1.971031,-0.002 l 0.0374,-0.84064 c -0.03756,-0.18549 0.04125,-0.16546 -0.192862,-0.16195 l -0.161983,0.78277 c -0.480895,0.12407 -0.85777,0.13286 -1.349756,-0.0255 l -0.104144,-0.76444 c -0.191748,-0.0536 -0.309655,-0.0384 -0.272592,0.18194 0.03815,0.2268 0.05939,0.60068 0.07291,0.82982 z"
         id="path36167"
         sodipodi:nodetypes="cccccccsc" />
      <path
         style="fill:#d45500;fill-opacity:1;stroke:#803300;stroke-width:0;stroke-dasharray:none"
         d="m 84.881183,180.6016 0.01178,0.32602 c 0.528561,0.19043 1.204765,0.2388 1.910643,-0.0138 l 0.001,-0.43733 c -0.373034,0.25643 -1.621332,0.45703 -1.923427,0.12476 z"
         id="path36169"
         sodipodi:nodetypes="cccccc" />
      <path
         style="fill:#ff7f2a;fill-opacity:1;stroke:#803300;stroke-width:0.0704788;stroke-dasharray:none"
         d="m 85.556978,179.42221 0.01759,1.68531 c 0.303638,0.0496 0.330289,0.0228 0.521288,-0.004 l 0.01909,-1.68351 z"
         id="path36897"
         sodipodi:nodetypes="ccccc" />
      <g
         id="g38620"
         transform="matrix(-1,0,0,1,165.16391,0)"
         style="stroke:#552200">
        <path
           style="fill:#ff7f2a;fill-opacity:1;stroke:#552200;stroke-width:0.3;stroke-dasharray:none"
           d="m 76.361086,189.59097 v -2.29184 c 0.605377,-0.17262 1.220087,-0.17724 1.847501,0.0468 1.704401,0.87634 1.518578,0.77796 1.543485,2.59585 l 0.02339,2.31522 c -0.247882,0.54394 -0.449023,0.58593 -0.954824,0.59715 -1.162216,0.0238 -1.671854,0.0141 -1.921548,-0.25817 -0.331267,-0.3612 -0.205019,-1.18458 -0.538004,-3.00497 z"
           id="path38610"
           sodipodi:nodetypes="ccccccscc" />
        <path
           style="fill:#ff7f2a;fill-opacity:1;stroke:#552200;stroke-width:0;stroke-dasharray:none"
           d="m 76.419551,189.62372 v -2.17879 c 0.600979,-0.1641 1.211223,-0.16849 1.834079,0.0445 1.692019,0.83312 1.507546,0.73959 1.532272,2.46781 l 0.02322,2.20102 c -0.246081,0.5171 -0.445761,0.55702 -0.947887,0.56769 -1.153773,0.0226 -1.659708,0.0134 -1.907588,-0.24543 -0.328861,-0.34339 -0.20353,-1.12616 -0.534096,-2.85675 z"
           id="path38612"
           sodipodi:nodetypes="ccccccscc" />
        <path
           style="fill:#d45500;fill-opacity:1;stroke:#552200;stroke-width:0.0982124;stroke-dasharray:none"
           d="m 76.431507,187.39554 c 0.731565,-0.13243 1.224894,-0.10107 1.736328,0.0637 -0.536316,2.08559 0.3821,3.48962 0.578776,5.23179 -2.600813,0.21288 -1.85891,-0.56727 -2.348177,-2.92693 z"
           id="path38614"
           sodipodi:nodetypes="ccccc" />
        <path
           style="fill:#803300;fill-opacity:1;stroke:#552200;stroke-width:0.1001;stroke-dasharray:none"
           d="m 76.497653,190.43328 1.704747,0.016 c 0.10511,-0.66647 -0.313418,-1.93006 0.647802,-1.7359 l 0.957338,1.58606 -0.01121,0.16589 c -0.392557,-0.27769 -0.751232,-1.17816 -1.218895,-0.46614 l -0.170476,0.61077 0.511425,2.09752 -0.183134,-9.7e-4 -0.566955,-2.03185 -1.619511,-0.008 z"
           id="path38616"
           sodipodi:nodetypes="cccccccccccc" />
        <path
           style="fill:#803300;fill-opacity:1;stroke:#552200;stroke-width:0.1;stroke-dasharray:none"
           d="m 76.886259,190.16099 c 0,0.0413 0.09095,0.83509 0.09095,0.83509 l 0.256315,-0.0413 -0.09922,-0.80202 z"
           id="path38618" />
      </g>
      <rect
         style="fill:#4d4d4d;fill-opacity:1;stroke:#333333;stroke-width:0.2;stroke-dasharray:none"
         id="rect38674"
         width="1.8190103"
         height="1.3229165"
         x="81.921616"
         y="184.9272"
         ry="0.66145825" />
    </g>
  </g>
</svg>
