<?xml version="1.0" encoding="UTF-8" standalone="no"?>
<svg
   width="128"
   height="128"
   viewBox="0 0 33.866666 33.866666"
   version="1.1"
   id="svg18180"
   inkscape:version="1.3 (0e150ed6c4, 2023-07-21)"
   sodipodi:docname="head.svg"
   xmlns:inkscape="http://www.inkscape.org/namespaces/inkscape"
   xmlns:sodipodi="http://sodipodi.sourceforge.net/DTD/sodipodi-0.dtd"
   xmlns:xlink="http://www.w3.org/1999/xlink"
   xmlns="http://www.w3.org/2000/svg"
   xmlns:svg="http://www.w3.org/2000/svg"
   xmlns:rdf="http://www.w3.org/1999/02/22-rdf-syntax-ns#"
   xmlns:cc="http://creativecommons.org/ns#"
   xmlns:dc="http://purl.org/dc/elements/1.1/">
  <metadata
     id="metadata57">
    <rdf:RDF>
      <cc:Work
         rdf:about="">
        <dc:format>image/svg+xml</dc:format>
        <dc:type
           rdf:resource="http://purl.org/dc/dcmitype/StillImage" />
      </cc:Work>
    </rdf:RDF>
  </metadata>
  <sodipodi:namedview
     id="namedview18182"
     pagecolor="#ffffff"
     bordercolor="#000000"
     borderopacity="0.25"
     inkscape:showpageshadow="2"
     inkscape:pageopacity="0.0"
     inkscape:pagecheckerboard="0"
     inkscape:deskcolor="#d1d1d1"
     inkscape:document-units="px"
     showgrid="false"
     inkscape:zoom="2.828427"
     inkscape:cx="3.889087"
     inkscape:cy="92.45421"
     inkscape:window-width="1920"
     inkscape:window-height="1017"
     inkscape:window-x="-8"
     inkscape:window-y="-8"
     inkscape:window-maximized="1"
     inkscape:current-layer="layer1"
     inkscape:document-rotation="0" />
  <defs
     id="defs18177">
    <radialGradient
       inkscape:collect="always"
       xlink:href="#linearGradient39266"
       id="radialGradient39268"
       cx="82.482712"
       cy="169.64322"
       fx="82.482712"
       fy="169.64322"
       r="0.51449507"
       gradientTransform="matrix(2.189084,0,0,3.951631,-163.6283,-644.0299)"
       gradientUnits="userSpaceOnUse" />
    <linearGradient
       inkscape:collect="always"
       id="linearGradient39266">
      <stop
         style="stop-color:#ffd3b7;stop-opacity:1"
         offset="0"
         id="stop39262" />
      <stop
         style="stop-color:#ffd3b7;stop-opacity:0"
         offset="1"
         id="stop39264" />
    </linearGradient>
    <radialGradient
       inkscape:collect="always"
       xlink:href="#linearGradient43580"
       id="radialGradient43582"
       cx="82.687508"
       cy="162.48083"
       fx="82.687508"
       fy="162.48083"
       r="6.3809047"
       gradientTransform="matrix(2.181062,0,0,1.021141,-163.4485,-156.8775)"
       gradientUnits="userSpaceOnUse" />
    <linearGradient
       inkscape:collect="always"
       id="linearGradient43580">
      <stop
         style="stop-color:#ffe1ce;stop-opacity:1"
         offset="0.71153843"
         id="stop43576" />
      <stop
         style="stop-color:#ffe1ce;stop-opacity:0"
         offset="1"
         id="stop43578" />
    </linearGradient>
    <radialGradient
       inkscape:collect="always"
       xlink:href="#linearGradient39266"
       id="radialGradient1072"
       gradientUnits="userSpaceOnUse"
       gradientTransform="matrix(0.9999996,0,0,1.805152,0.1975467,-136.1642)"
       cx="82.482712"
       cy="169.64322"
       fx="82.482712"
       fy="169.64322"
       r="0.51449507" />
    <radialGradient
       inkscape:collect="always"
       xlink:href="#linearGradient43580"
       id="radialGradient1074"
       gradientUnits="userSpaceOnUse"
       gradientTransform="matrix(0.996335,0,0,0.4664694,0.2796643,86.37279)"
       cx="82.687508"
       cy="162.48083"
       fx="82.687508"
       fy="162.48083"
       r="6.3809047" />
  </defs>
  <g
     inkscape:label="Слой 1"
     inkscape:groupmode="layer"
     id="layer1">
    <path
       id="path35694"
       style="fill:#fffbe9;fill-opacity:1;stroke:#c5b7bf;stroke-width:0.893352;stroke-opacity:1"
       d="M 16.93277,0.4472241 C 9.36502,0.4476619 3.230284,6.349873 3.230043,13.63077 c 0.01095,3.87424 1.208791,7.58649 2.564513,11.29874 1.642143,5.79976 3.18444,5.38428 8.735454,8.17886 1.59013,0.4144 2.83257,0.39032 4.46613,0.0963 6.82662,-2.93315 6.78995,-2.3537 9.14269,-8.47635 1.43862,-3.7591 2.32128,-7.02653 2.49779,-11.09867 C 30.63638,6.348559 24.50094,0.4461295 16.93277,0.4463484 Z" />
    <path
       id="path35696"
       style="fill:#ffe1ce;fill-opacity:1;stroke:none;stroke-width:0.579195"
       d="M 16.62251,0.6378934 C 12.72334,0.5437627 9.740382,2.037375 6.087259,5.842662 2.271071,11.35259 3.341862,17.34083 5.191332,22.08961 c 1.038502,2.66653 1.401212,5.41514 3.410682,7.4742 1.426126,1.46121 3.975706,1.94522 5.926576,3.07128 1.30677,0.36821 3.01494,0.53698 4.19463,0.13573 1.93524,-0.69635 4.77398,-1.44568 6.35759,-3.15513 1.41901,-1.53171 2.01768,-3.81821 2.71724,-5.43112 1.62168,-4.17853 2.57084,-8.18806 2.23646,-11.93446 -0.52763,-5.911402 -4.76148,-10.816484 -12.619,-11.5739077 -0.26856,-0.021891 -0.53304,-0.032836 -0.793,-0.039403 z m 0.0532,7.4332566 c 3.93974,0.02627 8.89307,1.770313 11.7468,5.95278 C 28.2008,20.78448 26.4857,25.12215 25.11704,27.98 22.41008,31.44051 18.8093,32.65545 16.64742,32.56044 13.83228,32.43567 10.22165,30.64587 8.182345,27.32043 5.924566,22.73824 5.106571,17.98486 4.784097,13.5894 7.123222,9.299227 12.91173,8.10136 16.67571,8.07115 Z"
       sodipodi:nodetypes="ccssccscsccccccsccc" />
    <path
       style="fill:url(#radialGradient39268);fill-opacity:1;stroke:#000000;stroke-width:0;stroke-dasharray:none"
       d="m 16.07802,24.30453 -0.27096,4.06601 2.25254,-0.0963 -0.40955,-3.87709 z"
       id="path38953"
       sodipodi:nodetypes="ccccc" />
    <path
       style="fill:#f1acab;fill-opacity:1;stroke:#000000;stroke-width:0;stroke-dasharray:none"
       d="m 16.73054,31.41139 c -0.18716,-0.0219 -0.37006,-0.0657 -0.51145,-0.12915 -0.0959,-0.0416 -0.10771,-0.0504 -0.10771,-0.0701 0,-0.0219 1.04884,-0.0219 1.31131,10e-4 0.10157,0 0.1933,0.0219 0.2038,0.0219 0.0197,0 0.0197,0 -0.009,0.0219 -0.0775,0.0525 -0.24437,0.10946 -0.40406,0.13792 -0.11099,0.0219 -0.36777,0.0263 -0.48423,0.0219 z"
       id="path42322" />
    <path
       style="fill:#f1acab;fill-opacity:1;stroke:#000000;stroke-width:0;stroke-dasharray:none"
       d="m 16.08531,30.54748 c -0.0718,0 -0.70083,-0.15324 -0.80306,-0.18169 -0.23684,-0.0657 -0.51401,-0.19483 -0.63066,-0.29334 -0.1145,-0.0963 -0.16508,-0.21891 -0.15042,-0.3612 0.005,-0.0547 0.0326,-0.16856 0.0397,-0.16856 0.002,0 0.0213,0.0832 0.0423,0.18607 0.0209,0.10289 0.0407,0.19045 0.0438,0.19483 0.003,0 0.0937,0.0482 0.2015,0.0985 0.19147,0.0876 0.20519,0.0941 0.60827,0.21672 l 0.41237,0.12478 0.29383,0.0503 c 0.35405,0.0613 0.34278,0.0591 0.34278,0.0744 0,0.0219 -0.0723,0.046 -0.14021,0.0591 -0.0572,0.0219 -0.18278,0.0219 -0.26028,-4.4e-4 z"
       id="path42318" />
    <path
       style="fill:#f1acab;fill-opacity:1;stroke:#000000;stroke-width:0;stroke-dasharray:none"
       d="m 17.58492,30.53829 c 0.0718,-0.0219 0.70083,-0.15324 0.80308,-0.1817 0.23682,-0.0657 0.51399,-0.19483 0.63064,-0.29334 0.11451,-0.0963 0.16509,-0.2189 0.15043,-0.36119 -0.005,-0.0547 -0.0326,-0.16856 -0.0399,-0.16856 -0.002,0 -0.0213,0.0832 -0.0423,0.18607 -0.0209,0.10289 -0.0407,0.19045 -0.0438,0.19483 -0.003,0 -0.0937,0.0482 -0.2015,0.0985 -0.19147,0.0876 -0.20519,0.0941 -0.60827,0.21672 l -0.41237,0.12477 -0.29383,0.0503 c -0.35405,0.0613 -0.34278,0.0591 -0.34278,0.0744 0,0.0219 0.0723,0.046 0.14021,0.0613 0.0572,0 0.18278,0 0.2603,-6.6e-4 z"
       id="path42324" />
    <path
       style="fill:url(#radialGradient43582);fill-opacity:1;stroke:#000000;stroke-width:0;stroke-dasharray:none"
       d="M 30.48393,2.522476 3.074049,3.150963 2.981013,15.34636 30.81531,15.55432 Z"
       id="path42330"
       sodipodi:nodetypes="ccccc" />
    <g
       id="g1217"
       transform="translate(-0.0018076,-0.0137998)">
      <ellipse
         style="fill:#ffcd7b;fill-opacity:1;stroke:#fdcbb8;stroke-width:0"
         id="path1692"
         cx="24.59315"
         cy="31.3644"
         rx="3.151915"
         ry="1.360317"
         transform="matrix(-0.0527377,0.9986084,0.9610786,-0.2762752,0,0)" />
      <path
         id="circle1746"
         style="fill:#3e2500;fill-opacity:1;stroke:#fdcbb8;stroke-width:0"
         d="m 27.53428,16.26183 c 0.12058,-1.78831 0.76598,-3.2933 1.47701,-3.52089 l -0.16604,3.14404 z"
         sodipodi:nodetypes="cccc" />
      <path
         id="path1754"
         style="fill:#3e2500;fill-opacity:1;stroke:#fdcbb8;stroke-width:0"
         d="m 30.16783,15.50822 c -0.11852,1.7664 -0.76485,3.32402 -1.49244,3.52533 l 0.16604,-3.14404 z"
         sodipodi:nodetypes="cccc" />
    </g>
    <g
       id="g1212"
       transform="translate(-0.0018076,-0.0137998)">
      <ellipse
         style="fill:#ffcd7b;fill-opacity:1;stroke:#fdcbb8;stroke-width:0"
         id="ellipse1777"
         cx="15.2151"
         cy="-4.248438"
         rx="3.151915"
         ry="1.360317"
         transform="matrix(0.0527377,0.9986084,-0.9610786,-0.2762752,0,0)" />
      <path
         id="path1779"
         style="fill:#3e2500;fill-opacity:1;stroke:#fdcbb8;stroke-width:0"
         d="M 6.197883,16.73577 C 6.077296,14.94746 5.431905,13.44247 4.720868,13.21488 l 0.16604,3.14404 z"
         sodipodi:nodetypes="cccc" />
      <path
         id="path1781"
         style="fill:#3e2500;fill-opacity:1;stroke:#fdcbb8;stroke-width:0"
         d="m 3.564334,15.98216 c 0.118512,1.7664 0.764848,3.32402 1.492431,3.52533 l -0.16604,-3.14404 z"
         sodipodi:nodetypes="cccc" />
    </g>
    <g
       id="g1273"
       transform="translate(-0.0018076,-0.0137998)">
      <g
         id="g1245">
        <path
           style="fill:#552200;fill-opacity:1;stroke:#fdcbb8;stroke-width:0"
           d="m 14.9871,19.21257 c -1.94245,-0.87242 -3.91442,-1.5985 -5.974018,-2.16026 -1.215993,0.11367 -1.900826,0.73786 -2.478679,1.33993 l 1.101592,-0.2999 c 1.309094,-0.43466 2.190639,-0.0827 3.453085,0.2999 1.37221,0.30424 3.05066,1.10948 3.89802,0.82033 z"
           id="path599"
           sodipodi:nodetypes="cccccc" />
        <path
           style="fill:#552200;fill-opacity:1;stroke:#fdcbb8;stroke-width:0"
           d="m 18.88321,19.21257 c 1.94246,-0.87242 3.91441,-1.5985 5.97401,-2.16026 1.21599,0.11367 1.90083,0.73786 2.47868,1.33993 l -1.10159,-0.2999 c -1.3091,-0.43466 -2.19064,-0.0827 -3.45309,0.2999 -1.3722,0.30424 -3.05066,1.10948 -3.89801,0.82033 z"
           id="path1680"
           sodipodi:nodetypes="cccccc" />
      </g>
      <g
         id="g1241">
        <g
           id="g1207">
          <path
             style="fill:#2b1100;fill-opacity:1;stroke:#fdcbb8;stroke-width:0"
             d="m 24.8453,24.50689 c 0.11033,0.0233 0.16353,0.0652 0.12346,0.14212 -1.51447,0.21901 -2.65102,0.2458 -4.06791,0.10018 -0.10726,-0.0815 -0.0657,-0.13513 0.0663,-0.17241 1.17948,0.23579 2.94949,0.0489 3.87827,-0.0699 z"
             id="path2626"
             sodipodi:nodetypes="ccccc" />
          <path
             style="fill:#ffffff;fill-opacity:1;stroke:#fdcbb8;stroke-width:0"
             d="m 18.39338,22.37442 c -0.55231,2.12926 2.35948,2.11087 4.28592,2.24624 1.32481,0 2.19572,-0.43424 3.38308,-0.83789 l 0.43652,-0.22384 0.37701,-0.60662 0.26787,-0.83066 -1.11117,-0.9677 -1.93461,-0.61385 -2.17271,-0.12194 -1.16076,0.18808 -1.52785,0.71492 -0.59528,0.62832 z"
             id="path1662"
             sodipodi:nodetypes="ccccccccccccc" />
          <path
             style="fill:#552200;stroke:#fdcbb8;stroke-width:0"
             d="m 18.6669,22.41038 c 0.96116,-1.38209 2.27963,-1.61234 4.00811,-1.87545 l 1.52785,0.26063 1.25005,0.51299 c 0.75535,0.43797 1.34371,0.83501 1.47,1.3513 0.26378,0.10128 -0.59596,1.58878 -0.40444,1.54331 0.0889,-0.0269 0.2767,-0.18395 0.54167,-0.44726 l 0.5159,-1.07641 c -2.0413,-3.395 -7.05056,-3.24246 -9.0282,-0.74841 -0.21409,0.63287 -0.39756,1.45671 0.11909,0.4793 z"
             id="path1664"
             sodipodi:nodetypes="cccccccccc" />
          <ellipse
             style="fill:#552200;stroke:#fdcbb8;stroke-width:0"
             id="ellipse1666"
             cx="22.77354"
             cy="22.42507"
             rx="2.534836"
             ry="2.195504" />
          <path
             id="path1668"
             style="fill:#552200;fill-opacity:1;stroke:#fdcbb8;stroke-width:0"
             d="m 25.36441,20.98488 c 0.0637,0.25485 -0.009,0.73828 -0.009,1.00325 0,1.60738 -1.11923,2.39671 -2.53936,2.39671 -1.4201,0 -2.57134,-0.46297 -2.57134,-2.07036 6e-5,-0.26517 -0.0276,-1.13201 0.0355,-1.38726 1.411,-0.47537 3.22608,-0.97906 5.08376,0.0579 z"
             sodipodi:nodetypes="ccscccc" />
          <ellipse
             style="fill:#aa4400;stroke:#fdcbb8;stroke-width:0"
             id="ellipse1670"
             cx="22.74233"
             cy="22.84856"
             rx="1.997017"
             ry="1.729682" />
          <path
             id="path1672"
             style="fill:#ff9e00;fill-opacity:1;stroke:#fdcbb8;stroke-width:0"
             d="m 21.69447,24.32201 c 0.53156,0.2538 1.27775,0.40076 2.00315,0.0331 0.0271,-1.79795 -2.13456,-1.56026 -2.00315,-0.0331 z"
             sodipodi:nodetypes="ccc" />
          <ellipse
             style="fill:#552200;stroke:#fdcbb8;stroke-width:0"
             id="ellipse1674"
             cx="22.65394"
             cy="22.8742"
             rx="0.5878609"
             ry="0.5806602" />
          <ellipse
             style="fill:#ff9e00;fill-opacity:1;stroke:#fdcbb8;stroke-width:0"
             id="ellipse1676"
             cx="32.30778"
             cy="4.274589"
             rx="0.2136258"
             ry="0.2575776"
             transform="matrix(0.7961064,0.6051567,-0.820341,0.5718747,0,0)" />
          <ellipse
             style="fill:#ffffff;stroke:#fdcbb8;stroke-width:0"
             id="ellipse1678"
             cx="-1.57995"
             cy="32.52156"
             rx="0.549336"
             ry="0.5929587"
             transform="matrix(-0.885459,0.4647176,0.7036935,0.7105037,0,0)" />
        </g>
        <g
           id="g1195">
          <path
             style="fill:#ffffff;fill-opacity:1;stroke:#fdcbb8;stroke-width:0"
             d="m 15.47692,22.37442 c 0.55231,2.12926 -2.35946,2.11087 -4.2859,2.24624 -1.324829,0 -2.195735,-0.43424 -3.383095,-0.83789 L 7.3714,23.55893 6.994396,22.95231 6.726539,22.12165 l 1.111158,-0.9677 1.934604,-0.61385 2.172709,-0.12194 1.16079,0.18808 1.52782,0.71492 0.59528,0.62832 z"
             id="path1338"
             sodipodi:nodetypes="ccccccccccccc" />
          <path
             style="fill:#552200;stroke:#fdcbb8;stroke-width:0"
             d="m 15.2034,22.41038 c -0.96116,-1.38209 -2.27963,-1.61234 -4.00811,-1.87545 l -1.527846,0.26063 -1.250056,0.51299 c -0.755343,0.43797 -1.343704,0.83501 -1.469992,1.3513 -0.263785,0.10128 0.595956,1.58878 0.404433,1.54331 -0.08888,-0.0269 -0.2767,-0.18395 -0.541667,-0.44726 L 6.294261,22.67949 c 2.041299,-3.395 7.050559,-3.24246 9.028199,-0.74841 0.21431,0.63287 0.39756,1.45671 -0.11908,0.4793 z"
             id="path1340"
             sodipodi:nodetypes="cccccccccc" />
          <ellipse
             style="fill:#552200;stroke:#fdcbb8;stroke-width:0"
             id="ellipse1342"
             cx="-11.09676"
             cy="22.42507"
             rx="2.534836"
             ry="2.195504"
             transform="scale(-1,1)" />
          <path
             id="path2566"
             style="fill:#552200;fill-opacity:1;stroke:#fdcbb8;stroke-width:0"
             d="m 8.505893,20.98488 c -0.0637,0.25485 0.0088,0.73828 0.0088,1.00325 0,1.60738 1.119236,2.39671 2.539357,2.39671 1.4201,0 2.57134,-0.46297 2.57134,-2.07036 -6e-5,-0.26517 0.0276,-1.13201 -0.0355,-1.38726 -1.411,-0.47537 -3.22608,-0.97906 -5.08373,0.0579 z"
             sodipodi:nodetypes="ccscccc" />
          <ellipse
             style="fill:#aa4400;stroke:#fdcbb8;stroke-width:0"
             id="ellipse1344"
             cx="-11.12798"
             cy="22.84856"
             rx="1.997017"
             ry="1.729682"
             transform="scale(-1,1)" />
          <path
             id="path1346"
             style="fill:#ff9e00;fill-opacity:1;stroke:#fdcbb8;stroke-width:0"
             d="m 12.17583,24.32201 c -0.53153,0.2538 -1.27775,0.40076 -2.00315,0.0331 -0.0271,-1.79795 2.13456,-1.56026 2.00315,-0.0331 z"
             sodipodi:nodetypes="ccc" />
          <ellipse
             style="fill:#552200;stroke:#fdcbb8;stroke-width:0"
             id="ellipse1348"
             cx="-11.21635"
             cy="22.8742"
             rx="0.5878609"
             ry="0.5806602"
             transform="scale(-1,1)" />
          <ellipse
             style="fill:#ff9e00;fill-opacity:1;stroke:#fdcbb8;stroke-width:0"
             id="ellipse1350"
             cx="11.95522"
             cy="25.81154"
             rx="0.2136258"
             ry="0.2575776"
             transform="matrix(-0.7961064,0.6051567,0.820341,0.5718747,0,0)" />
          <ellipse
             style="fill:#ffffff;stroke:#fdcbb8;stroke-width:0"
             id="ellipse1352"
             cx="6.961709"
             cy="26.83589"
             rx="0.549336"
             ry="0.5929587"
             transform="matrix(-0.885459,0.4647176,0.7036935,0.7105037,0,0)" />
          <path
             style="fill:#2b1100;fill-opacity:1;stroke:#fdcbb8;stroke-width:0"
             d="m 13.15281,24.46821 c 0.11033,0.0233 0.16352,0.0652 0.12324,0.14212 -1.51447,0.22134 -2.65102,0.24581 -4.067909,0.10019 -0.107265,-0.0816 -0.06567,-0.13513 0.06633,-0.17241 1.179479,0.23601 2.949509,0.0489 3.878289,-0.0699 z"
             id="path1704"
             sodipodi:nodetypes="ccccc" />
        </g>
      </g>
    </g>
    <circle
       style="fill:#fffbe9;fill-opacity:1;stroke-width:0;stroke-linecap:round;stroke-linejoin:bevel;paint-order:markers stroke fill"
       id="path2232-1"
       cx="42.79361"
       cy="5.060987"
       r="2.275416" />
    <circle
       style="fill:#aa4400;fill-opacity:1;stroke-width:0;stroke-linecap:round;stroke-linejoin:bevel;paint-order:markers stroke fill"
       id="path2232-15"
       cx="42.6005"
       cy="16.957"
       r="2.275416" />
    <circle
       style="fill:#3e2500;fill-opacity:1;stroke-width:0;stroke-linecap:round;stroke-linejoin:bevel;paint-order:markers stroke fill"
       id="path2232-6"
       cx="47.88165"
       cy="30.92518"
       r="2.275416" />
    <circle
       style="fill:#ffcd7b;fill-opacity:1;stroke-width:0;stroke-linecap:round;stroke-linejoin:bevel;paint-order:markers stroke fill"
       id="circle967"
       cx="42.29947"
       cy="30.84504"
       r="2.275416" />
    <circle
       style="fill:#ffe1ce;fill-opacity:1;stroke-width:0;stroke-linecap:round;stroke-linejoin:bevel;paint-order:markers stroke fill"
       id="circle969"
       cx="42.69635"
       cy="10.53827"
       r="2.275416" />
    <circle
       style="fill:#ff9e00;fill-opacity:1;stroke-width:0;stroke-linecap:round;stroke-linejoin:bevel;paint-order:markers stroke fill"
       id="circle2637"
       cx="42.22632"
       cy="23.69219"
       r="2.275416" />
    <circle
       style="fill:#c5b7bf;fill-opacity:1;stroke-width:0;stroke-linecap:round;stroke-linejoin:bevel;paint-order:markers stroke fill"
       id="circle932"
       cx="49.04635"
       cy="10.80285"
       r="2.275416" />
    <g
       id="g1070"
       transform="matrix(2.189085,0,0,2.189085,-212.6117,-361.0361)">
      <path
         id="path986"
         style="fill:#fffbe9;fill-opacity:1;stroke:#fdcbb8;stroke-width:0.408094;stroke-opacity:1"
         d="m 82.67997,158.2406 c -3.45704,2e-4 -6.25946,2.6964 -6.25957,6.0224 0.005,1.7698 0.55219,3.4656 1.1715,5.1614 0.75015,2.6494 1.45469,2.4596 3.99046,3.7362 0.72639,0.1893 1.29395,0.1783 2.04018,0.044 3.11848,-1.3399 3.10173,-1.0752 4.17649,-3.8721 0.65718,-1.7172 1.06039,-3.2098 1.14102,-5.07 -1.1e-4,-3.3261 -2.80285,-6.0224 -6.26008,-6.0223 z" />
      <path
         id="path988"
         style="fill:#ffe1ce;fill-opacity:1;stroke:none;stroke-width:0.264583"
         d="m 82.53824,158.3277 c -1.78119,-0.043 -3.14384,0.6393 -4.81263,2.3776 -1.74328,2.517 -1.25413,5.2525 -0.40927,7.4218 0.4744,1.2181 0.64009,2.4737 1.55804,3.4143 0.65147,0.6675 1.81615,0.8886 2.70733,1.403 0.59695,0.1682 1.37726,0.2453 1.91616,0.062 0.88404,-0.3181 2.18081,-0.6604 2.90422,-1.4413 0.64822,-0.6997 0.9217,-1.7442 1.24127,-2.481 0.7408,-1.9088 1.17439,-3.7404 1.02164,-5.4518 -0.24103,-2.7004 -2.1751,-4.9411 -5.76451,-5.2871 -0.12268,-0.01 -0.2435,-0.015 -0.36225,-0.018 z m 0.0243,3.3956 c 1.79972,0.012 4.06246,0.8087 5.36608,2.7193 -0.10128,3.0883 -0.88476,5.0698 -1.50998,6.3753 -1.23657,1.5808 -2.88145,2.1358 -3.86902,2.0924 -1.28599,-0.057 -2.93537,-0.8746 -3.86695,-2.3937 -1.03138,-2.0932 -1.40505,-4.2646 -1.55236,-6.2725 1.06854,-1.9598 3.7128,-2.507 5.43223,-2.5208 z"
         sodipodi:nodetypes="ccssccscsccccccsccc" />
      <path
         style="fill:url(#radialGradient1072);fill-opacity:1;stroke:#000000;stroke-width:0;stroke-dasharray:none"
         d="m 82.28951,169.1389 -0.12378,1.8574 1.02899,-0.044 -0.18709,-1.7711 z"
         id="path990"
         sodipodi:nodetypes="ccccc" />
      <path
         style="fill:#f1acab;fill-opacity:1;stroke:#000000;stroke-width:0;stroke-dasharray:none"
         d="m 82.58759,172.3854 c -0.0855,-0.01 -0.16905,-0.03 -0.23364,-0.059 -0.0438,-0.019 -0.0492,-0.023 -0.0492,-0.032 0,-0.01 0.47912,-0.01 0.59902,5e-4 0.0464,0 0.0883,0.01 0.0931,0.01 0.009,0 0.009,0 -0.004,0.01 -0.0354,0.024 -0.11163,0.05 -0.18458,0.063 -0.0507,0.01 -0.168,0.012 -0.2212,0.01 z"
         id="path992" />
      <g
         id="g998"
         transform="matrix(0.7526323,0,0,1,20.44132,-2.624699e-5)">
        <path
           style="fill:#f1acab;fill-opacity:1;stroke:#000000;stroke-width:0;stroke-dasharray:none"
           d="m 82.18026,171.9908 c -0.0436,0 -0.42537,-0.07 -0.48742,-0.083 -0.14375,-0.03 -0.31198,-0.089 -0.38278,-0.134 -0.0695,-0.044 -0.1002,-0.1 -0.0913,-0.165 0.003,-0.025 0.0198,-0.077 0.0241,-0.077 0.001,0 0.0129,0.038 0.0257,0.085 0.0127,0.047 0.0247,0.087 0.0266,0.089 0.002,0 0.0569,0.022 0.1223,0.045 0.11621,0.04 0.12454,0.043 0.36919,0.099 l 0.25029,0.057 0.17834,0.023 c 0.21489,0.028 0.20805,0.027 0.20805,0.034 0,0.01 -0.0439,0.021 -0.0851,0.027 -0.0347,0.01 -0.11094,0.01 -0.15798,-2e-4 z"
           id="path994" />
        <path
           style="fill:#f1acab;fill-opacity:1;stroke:#000000;stroke-width:0;stroke-dasharray:none"
           d="m 83.09045,171.9866 c 0.0436,-0.01 0.42537,-0.07 0.48743,-0.083 0.14374,-0.03 0.31197,-0.089 0.38277,-0.134 0.0695,-0.044 0.1002,-0.1 0.0913,-0.165 -0.003,-0.025 -0.0198,-0.077 -0.0242,-0.077 -10e-4,0 -0.0129,0.038 -0.0257,0.085 -0.0127,0.047 -0.0247,0.087 -0.0266,0.089 -0.002,0 -0.0569,0.022 -0.1223,0.045 -0.11621,0.04 -0.12454,0.043 -0.36919,0.099 l -0.25029,0.057 -0.17834,0.023 c -0.21489,0.028 -0.20805,0.027 -0.20805,0.034 0,0.01 0.0439,0.021 0.0851,0.028 0.0347,0 0.11094,0 0.15799,-3e-4 z"
           id="path996" />
      </g>
      <path
         style="fill:url(#radialGradient1074);fill-opacity:1;stroke:#000000;stroke-width:0;stroke-dasharray:none"
         d="m 88.8703,159.1886 -12.52116,0.2871 -0.0425,5.571 12.71504,0.095 z"
         id="path1000"
         sodipodi:nodetypes="ccccc" />
      <g
         id="g1010"
         transform="matrix(-0.0271709,0.5144914,0.2127572,-0.06116,56.00549,129.998)">
        <g
           id="g1008">
          <ellipse
             style="fill:#ffcc00;fill-opacity:1;stroke:#fdcbb8;stroke-width:0"
             id="ellipse1002"
             cx="87.87521"
             cy="162.1742"
             rx="2.794661"
             ry="2.807063" />
          <path
             id="path1004"
             style="fill:#28170b;fill-opacity:1;stroke:#fdcbb8;stroke-width:0"
             d="m 87.86696,159.3553 c -1.58105,0.057 -2.77065,1.2908 -2.79156,2.8148 h 2.79156 z"
             sodipodi:nodetypes="cccc" />
          <path
             id="path1006"
             style="fill:#28170b;fill-opacity:1;stroke:#fdcbb8;stroke-width:0"
             d="m 87.87006,165.0102 c 1.56183,-0.055 2.79863,-1.2848 2.79156,-2.8479 h -2.79156 z"
             sodipodi:nodetypes="cccc" />
        </g>
      </g>
      <g
         id="g1020"
         transform="matrix(0.0271709,0.5144914,-0.2127572,-0.06116,109.2919,130.2145)">
        <g
           id="g1018">
          <ellipse
             style="fill:#ffcc00;fill-opacity:1;stroke:#fdcbb8;stroke-width:0"
             id="ellipse1012"
             cx="87.87521"
             cy="162.1742"
             rx="2.794661"
             ry="2.807063" />
          <path
             id="path1014"
             style="fill:#28170b;fill-opacity:1;stroke:#fdcbb8;stroke-width:0"
             d="m 87.86696,159.3553 c -1.58105,0.057 -2.77065,1.2908 -2.79156,2.8148 h 2.79156 z"
             sodipodi:nodetypes="cccc" />
          <path
             id="path1016"
             style="fill:#28170b;fill-opacity:1;stroke:#fdcbb8;stroke-width:0"
             d="m 87.87006,165.0102 c 1.56183,-0.055 2.79863,-1.2848 2.79156,-2.8479 h -2.79156 z"
             sodipodi:nodetypes="cccc" />
        </g>
      </g>
      <g
         id="g1068"
         transform="matrix(1,0,0,1.064317,2.695288e-7,-10.66504)">
        <path
           style="fill:#2b1100;fill-opacity:1;stroke:#fdcbb8;stroke-width:0"
           d="m 86.29368,169.0193 c 0.0504,0.01 0.0747,0.028 0.0564,0.061 -0.69183,0.094 -1.21102,0.1055 -1.85827,0.043 -0.049,-0.035 -0.03,-0.058 0.0303,-0.074 0.5388,0.1012 1.34736,0.021 1.77164,-0.03 z"
           id="path1022"
           sodipodi:nodetypes="ccccc" />
        <g
           id="g1064"
           transform="matrix(1,0,0,0.8871021,0.076099,18.86741)">
          <path
             style="fill:#ffffff;fill-opacity:1;stroke:#fdcbb8;stroke-width:0"
             d="m 81.93799,168.2294 c 0.2523,1.0302 -1.07783,1.0213 -1.95785,1.0868 -0.6052,0 -1.00304,-0.2101 -1.54544,-0.4054 l -0.19941,-0.1083 -0.17222,-0.2935 -0.12236,-0.4019 0.50759,-0.4682 0.88375,-0.297 0.99252,-0.059 0.53026,0.091 0.69793,0.3459 0.27193,0.304 z"
             id="path1024"
             sodipodi:nodetypes="ccccccccccccc" />
          <path
             style="fill:#552200;stroke:#fdcbb8;stroke-width:0"
             d="m 81.81304,168.2468 c -0.43907,-0.6687 -1.04136,-0.7801 -1.83095,-0.9074 l -0.69794,0.1261 -0.57104,0.2482 c -0.34505,0.2119 -0.61382,0.404 -0.67151,0.6538 -0.1205,0.049 0.27224,0.7687 0.18475,0.7467 -0.0406,-0.013 -0.1264,-0.089 -0.24744,-0.2164 l -0.23567,-0.5208 c 0.93249,-1.6426 3.22078,-1.5688 4.12419,-0.3621 0.0979,0.3062 0.18161,0.7048 -0.0544,0.2319 z"
             id="path1026"
             sodipodi:nodetypes="cccccccccc" />
          <ellipse
             style="fill:#552200;stroke:#fdcbb8;stroke-width:0"
             id="ellipse1028"
             cx="-79.93708"
             cy="168.2539"
             rx="1.157943"
             ry="1.062251"
             transform="scale(-1,1)" />
          <path
             id="path1030"
             style="fill:#552200;fill-opacity:1;stroke:#fdcbb8;stroke-width:0"
             d="m 78.75354,167.5571 c -0.0291,0.1233 0.004,0.3572 0.004,0.4854 0,0.7777 0.51128,1.1596 1.16001,1.1596 0.64872,0 1.17462,-0.224 1.17462,-1.0017 -3e-5,-0.1283 0.0126,-0.5477 -0.0162,-0.6712 -0.64456,-0.23 -1.47371,-0.4737 -2.32231,0.028 z"
             sodipodi:nodetypes="ccscccc" />
          <ellipse
             style="fill:#aa4400;stroke:#fdcbb8;stroke-width:0"
             id="ellipse1032"
             cx="-79.95134"
             cy="168.4588"
             rx="0.9122612"
             ry="0.8368722"
             transform="scale(-1,1)" />
          <path
             id="path1034"
             style="fill:#d45500;stroke:#fdcbb8;stroke-width:0"
             d="m 80.43001,169.1717 c -0.24281,0.1228 -0.58369,0.1939 -0.91506,0.016 -0.0124,-0.8699 0.97509,-0.7549 0.91506,-0.016 z"
             sodipodi:nodetypes="ccc" />
          <ellipse
             style="fill:#552200;stroke:#fdcbb8;stroke-width:0"
             id="ellipse1036"
             cx="-79.99171"
             cy="168.4712"
             rx="0.2685418"
             ry="0.2809409"
             transform="scale(-1,1)" />
          <ellipse
             style="fill:#d45500;fill-opacity:1;stroke:#fdcbb8;stroke-width:0"
             id="ellipse1038"
             cx="90.52787"
             cy="187.3359"
             rx="0.09973929"
             ry="0.1199849"
             transform="matrix(-0.7789255,0.6271165,0.8044762,0.5939849,0,0)" />
          <ellipse
             style="fill:#ffffff;stroke:#fdcbb8;stroke-width:0"
             id="ellipse1040"
             cx="57.66585"
             cy="191.9162"
             rx="0.2542219"
             ry="0.2790731"
             transform="matrix(-0.8740392,0.4858554,0.6830105,0.7304086,0,0)" />
          <path
             style="fill:#552200;fill-opacity:1;stroke:#fdcbb8;stroke-width:0"
             d="m 81.71423,166.6996 c -0.88733,-0.4221 -1.78815,-0.7734 -2.729,-1.0452 -0.55548,0.055 -0.86832,0.357 -1.13229,0.6483 l 0.50322,-0.1451 c 0.59801,-0.2103 1.00071,-0.04 1.57741,0.1451 0.62684,0.1472 1.39358,0.5368 1.78066,0.3969 z"
             id="path1042"
             sodipodi:nodetypes="cccccc" />
          <path
             style="fill:#ffffff;fill-opacity:1;stroke:#fdcbb8;stroke-width:0"
             d="m 83.27026,168.2294 c -0.2523,1.0302 1.07784,1.0213 1.95786,1.0868 0.60519,0 1.00303,-0.2101 1.54543,-0.4054 l 0.19941,-0.1083 0.17222,-0.2935 0.12237,-0.4019 -0.5076,-0.4682 -0.88375,-0.297 -0.99252,-0.059 -0.53025,0.091 -0.69794,0.3459 -0.27193,0.304 z"
             id="path1044"
             sodipodi:nodetypes="ccccccccccccc" />
          <path
             style="fill:#552200;stroke:#fdcbb8;stroke-width:0"
             d="m 83.39521,168.2468 c 0.43907,-0.6687 1.04136,-0.7801 1.83095,-0.9074 l 0.69794,0.1261 0.57104,0.2482 c 0.34505,0.2119 0.61382,0.404 0.67151,0.6538 0.1205,0.049 -0.27224,0.7687 -0.18475,0.7467 0.0406,-0.013 0.1264,-0.089 0.24744,-0.2164 l 0.23567,-0.5208 c -0.93249,-1.6426 -3.22078,-1.5688 -4.12419,-0.3621 -0.0978,0.3062 -0.18161,0.7048 0.0544,0.2319 z"
             id="path1046"
             sodipodi:nodetypes="cccccccccc" />
          <ellipse
             style="fill:#552200;stroke:#fdcbb8;stroke-width:0"
             id="ellipse1048"
             cx="85.27117"
             cy="168.2539"
             rx="1.157943"
             ry="1.062251" />
          <path
             id="path1050"
             style="fill:#552200;fill-opacity:1;stroke:#fdcbb8;stroke-width:0"
             d="m 86.45471,167.5571 c 0.0291,0.1233 -0.004,0.3572 -0.004,0.4854 0,0.7777 -0.51128,1.1596 -1.16001,1.1596 -0.64872,0 -1.17462,-0.224 -1.17462,-1.0017 3e-5,-0.1283 -0.0126,-0.5477 0.0162,-0.6712 0.64456,-0.23 1.47371,-0.4737 2.32232,0.028 z"
             sodipodi:nodetypes="ccscccc" />
          <ellipse
             style="fill:#aa4400;stroke:#fdcbb8;stroke-width:0"
             id="ellipse1052"
             cx="85.25691"
             cy="168.4588"
             rx="0.9122612"
             ry="0.8368722" />
          <path
             id="path1054"
             style="fill:#d45500;stroke:#fdcbb8;stroke-width:0"
             d="m 84.77824,169.1717 c 0.24282,0.1228 0.58369,0.1939 0.91506,0.016 0.0124,-0.8699 -0.97509,-0.7549 -0.91506,-0.016 z"
             sodipodi:nodetypes="ccc" />
          <ellipse
             style="fill:#552200;stroke:#fdcbb8;stroke-width:0"
             id="ellipse1056"
             cx="85.21654"
             cy="168.4712"
             rx="0.2685418"
             ry="0.2809409" />
          <ellipse
             style="fill:#d45500;fill-opacity:1;stroke:#fdcbb8;stroke-width:0"
             id="ellipse1058"
             cx="191.9901"
             cy="80.21429"
             rx="0.09973929"
             ry="0.1199849"
             transform="matrix(0.7789255,0.6271165,-0.8044762,0.5939849,0,0)" />
          <ellipse
             style="fill:#ffffff;stroke:#fdcbb8;stroke-width:0"
             id="ellipse1060"
             cx="182.0354"
             cy="109.1877"
             rx="0.2542219"
             ry="0.2790731"
             transform="matrix(0.8740392,0.4858554,-0.6830105,0.7304086,0,0)" />
          <path
             style="fill:#552200;fill-opacity:1;stroke:#fdcbb8;stroke-width:0"
             d="m 83.49402,166.6996 c 0.88734,-0.4221 1.78815,-0.7734 2.729,-1.0452 0.55548,0.055 0.86832,0.357 1.13229,0.6483 l -0.50322,-0.1451 c -0.59801,-0.2103 -1.00071,-0.04 -1.57741,0.1451 -0.62684,0.1472 -1.39358,0.5368 -1.78066,0.3969 z"
             id="path1062"
             sodipodi:nodetypes="cccccc" />
        </g>
        <path
           style="fill:#2b1100;fill-opacity:1;stroke:#fdcbb8;stroke-width:0"
           d="m 80.95241,169.0027 c 0.0504,0.01 0.0747,0.028 0.0563,0.061 -0.69183,0.095 -1.21102,0.1055 -1.85827,0.043 -0.049,-0.035 -0.03,-0.058 0.0303,-0.074 0.5388,0.1013 1.34737,0.021 1.77165,-0.03 z"
           id="path1066"
           sodipodi:nodetypes="ccccc" />
      </g>
    </g>
  </g>
</svg>
